<svg width="24px" height="24px" viewBox="0 0 24 24" fill="none" xmlns="http://www.w3.org/2000/svg">
<path d="m17.52459,3.40993l-5.04914,0c-1.68017,-0.00002 -3.03446,-0.00005 -4.09959,0.14315c-1.10585,0.14868 -2.03695,0.46675 -2.77645,1.20625c-0.73949,0.7395 -1.05757,1.6706 -1.20624,2.77645c-0.1432,1.06512 -0.14319,2.41938 -0.14317,4.09953l0,8.53528c-0.00004,1.58068 -0.00006,2.87142 0.13934,3.8254c0.14024,0.95951 0.46606,1.9108 1.41657,2.37274c0.95051,0.46207 1.89986,0.13047 2.74099,-0.35211c0.83623,-0.47963 1.85112,-1.2771 3.09398,-2.25369l0.89224,-0.70102c0.7465,-0.58664 1.24309,-0.97487 1.65565,-1.22575c0.39118,-0.2381 0.61785,-0.29523 0.81123,-0.29523c0.19338,0 0.42005,0.05713 0.81123,0.29523c0.41255,0.25087 0.90914,0.6391 1.65562,1.22562l0.89231,0.70115c1.24282,0.97647 2.25775,1.77406 3.09391,2.25369c0.8412,0.48258 1.79052,0.81417 2.74106,0.35211c0.95042,-0.46194 1.27624,-1.41323 1.41654,-2.37274c0.13944,-0.95399 0.13932,-2.24472 0.13932,-3.8254l0,-8.53521c0,-1.68018 0,-3.03446 -0.14313,-4.09959c-0.14866,-1.10585 -0.46673,-2.03695 -1.20621,-2.77645c-0.7396,-0.7395 -1.67061,-1.05757 -2.77645,-1.20625c-1.06517,-0.1432 -2.41942,-0.14318 -4.09962,-0.14315z" fill="black"/>
</svg>
