<svg width="24px" height="24px" viewBox="0 0 24 24" fill="none" xmlns="http://www.w3.org/2000/svg">
<path fill-rule="evenodd" clip-rule="evenodd" d="m 12.431413,3.2077747 h 5.137212 c 1.7095,-2.5e-5 3.087375,-5e-5 4.171125,0.14565 1.125125,0.151275 2.072375,0.4748875 2.824875,1.2272875 0.752375,0.7524 1.076,1.6997375 1.22725,2.824875 C 25.9375,8.4892997 25.9375,9.8672 25.9375,11.576687 v 8.684088 c 0,1.60825 1.25e-4,2.9215 -0.14175,3.892125 -0.14275,0.97625 -0.47425,1.944125 -1.44125,2.414125 -0.967125,0.470125 -1.933,0.13275 -2.788875,-0.35825 -0.85075,-0.488 -1.883375,-1.299375 -3.147875,-2.293 L 17.509875,23.2024 c -0.7595,-0.59675 -1.26475,-0.99175 -1.6845,-1.247 C 15.427375,21.71315 15.19675,21.655025 15,21.655025 c -0.19675,0 -0.427375,0.05813 -0.825375,0.300375 -0.41975,0.25525 -0.925,0.65025 -1.684525,1.247125 l -0.907737,0.713125 c -1.264563,0.993625 -2.2971879,1.805125 -3.1480123,2.293125 -0.8558,0.491 -1.8217125,0.828375 -2.7888,0.35825 -0.9670875,-0.47 -1.2985875,-1.437875 -1.441275,-2.414125 -0.14185,-0.970625 -0.1418125,-2.283875 -0.141775,-3.892125 v -8.684088 c -2.5e-5,-1.709487 -5e-5,-3.0873873 0.14565,-4.1710998 0.151275,-1.1251375 0.4749,-2.072475 1.2272875,-2.824875 0.7524,-0.7524 1.6997375,-1.0760125 2.824875,-1.2272875 1.0837119,-0.1457 2.4616118,-0.145675 4.1710998,-0.14565 z M 8.5101507,5.2117122 C 7.5929382,5.3350247 7.1072132,5.5605872 6.7612632,5.9065372 6.4153132,6.2524872 6.1897507,6.7382122 6.0664382,7.6554247 5.9394882,8.5996122 5.9375007,9.851 5.9375007,11.645275 v 8.5345 c 0,1.709 0.00245,2.8835 0.122075,3.701875 0.12115,0.829125 0.3173375,0.956125 0.4056125,0.999125 0.088275,0.04287 0.3094,0.118625 1.0361375,-0.298375 0.717475,-0.4115 1.6425244,-1.13525 2.9862993,-2.191125 L 11.375288,21.6939 C 12.079588,21.1404 12.673,20.67415 13.2,20.353525 c 0.559625,-0.340375 1.132125,-0.5735 1.8,-0.5735 0.667875,0 1.240375,0.233125 1.8,0.5735 0.527125,0.320625 1.1205,0.786875 1.82475,1.340375 l 0.887625,0.697375 c 1.34375,1.055875 2.268875,1.779625 2.98625,2.191125 0.72675,0.417 0.947875,0.34125 1.03625,0.298375 0.08825,-0.043 0.284375,-0.17 0.4055,-0.999125 C 24.06,23.063275 24.0625,21.888775 24.0625,20.179775 v -8.5345 C 24.0625,9.851 24.0605,8.5996122 23.933625,7.6554247 23.81025,6.7382122 23.58475,6.2524872 23.23875,5.9065372 22.89275,5.5605872 22.407125,5.3350247 21.489875,5.2117122 20.545625,5.0847622 19.29425,5.0827747 17.5,5.0827747 h -5 c -1.794262,0 -3.0456624,0.00199 -3.9898493,0.1289375 z" fill="black"/>
</svg>
